<?xml version="1.0" standalone="no"?><!DOCTYPE svg PUBLIC "-//W3C//DTD SVG 1.1//EN" "http://www.w3.org/Graphics/SVG/1.1/DTD/svg11.dtd"><svg t="1757319814132" class="icon" viewBox="0 0 1025 1024" version="1.1" xmlns="http://www.w3.org/2000/svg" p-id="5848" xmlns:xlink="http://www.w3.org/1999/xlink" width="200.1953125" height="200"><path d="M1022.250896 1022.24437h-1021.457608v-1021.457608h1021.457608z m-1017.467539-3.990069h1013.477471V4.776831H4.783357z" fill="#C6CFD4" opacity=".5" p-id="5849"></path><path d="M0.793288 1023.042383a0.877815 0.877815 0 0 1-0.558609 0 0.798014 0.798014 0 0 1 0-1.117219l1021.457608-1021.457608a0.798014 0.798014 0 0 1 1.117219 0 0.798014 0.798014 0 0 1 0 1.11722l-1021.457608 1021.457607a0.718212 0.718212 0 0 1-0.55861 0z" fill="#070707" opacity=".5" p-id="5850"></path><path d="M1022.250896 1023.042383a0.877815 0.877815 0 0 1-0.558609 0L0.234679 1.345371a0.798014 0.798014 0 0 1 0-1.117219 0.798014 0.798014 0 0 1 1.117219 0l1021.457608 1021.457608a0.798014 0.798014 0 0 1 0 1.117219 0.718212 0.718212 0 0 1-0.55861 0.239404z" fill="#070707" opacity=".5" p-id="5851"></path><path d="M929.202492 852.746248H93.921494a8.778151 8.778151 0 0 1-8.778152-8.778151V178.983234a8.778151 8.778151 0 0 1 8.778152-8.778152h835.280998a8.778151 8.778151 0 0 1 8.778152 8.778152v664.984863a8.778151 8.778151 0 0 1-8.778152 8.778151zM93.921494 171.80111a7.182124 7.182124 0 0 0-7.182124 7.182124v664.984863a7.182124 7.182124 0 0 0 7.182124 7.182123h835.280998a7.182124 7.182124 0 0 0 7.182124-7.182123V178.983234a7.182124 7.182124 0 0 0-7.182124-7.182124z" fill="#070707" opacity=".5" p-id="5852"></path><path d="M844.054425 937.894316H179.069562a8.778151 8.778151 0 0 1-8.778152-8.778152V93.835166a8.778151 8.778151 0 0 1 8.778152-8.778152h664.984863a8.778151 8.778151 0 0 1 8.778151 8.778152v835.280998a8.778151 8.778151 0 0 1-8.778151 8.778152zM179.069562 86.653042a7.182124 7.182124 0 0 0-7.182124 7.182124v835.280998a7.182124 7.182124 0 0 0 7.182124 7.182124h664.984863a7.182124 7.182124 0 0 0 7.182123-7.182124V93.835166a7.182124 7.182124 0 0 0-7.182123-7.182124z" fill="#070707" opacity=".5" p-id="5853"></path><path d="M886.588558 895.360182h-750.132931a8.857953 8.857953 0 0 1-8.778151-8.778151v-750.132931a8.778151 8.778151 0 0 1 8.778151-8.778151h750.132931a8.778151 8.778151 0 0 1 8.778151 8.778151v750.132931a8.778151 8.778151 0 0 1-8.778151 8.778151z m-750.132931-766.093205a7.182124 7.182124 0 0 0-7.182124 7.182123v750.132931a7.261925 7.261925 0 0 0 7.182124 7.182124h750.132931a7.182124 7.182124 0 0 0 7.182124-7.182124v-750.132931a7.182124 7.182124 0 0 0-7.182124-7.182123z" fill="#070707" opacity=".5" p-id="5854"></path><path d="M511.522092 937.096302a425.660538 425.660538 0 1 1 425.660538-425.580736 426.139346 426.139346 0 0 1-425.660538 425.580736z m0-849.645246a424.06451 424.06451 0 1 0 424.06451 424.06451 424.543318 424.543318 0 0 0-424.06451-424.06451z" fill="#070707" opacity=".5" p-id="5855"></path><path d="M511.522092 724.266033a212.830269 212.830269 0 1 1 212.830269-212.750467 212.989872 212.989872 0 0 1-212.830269 212.750467z m0-423.984709a211.234241 211.234241 0 1 0 211.234242 211.234242 211.393844 211.393844 0 0 0-211.234242-211.234242z" fill="#070707" opacity=".5" p-id="5856"></path><path d="M256.15769 240.190889h175.563027a39.900688 39.900688 0 0 1 39.900688 39.900687v175.563027a39.900688 39.900688 0 0 1-39.900688 39.900688h-175.563027a39.900688 39.900688 0 0 1-39.900687-39.900688v-175.563027a39.900688 39.900688 0 0 1 39.900687-39.900687z m0 319.205502h175.563027a39.900688 39.900688 0 0 1 39.900688 39.900688v175.563026a39.900688 39.900688 0 0 1-39.900688 39.900688h-175.563027a39.900688 39.900688 0 0 1-39.900687-39.900688v-175.563026a39.900688 39.900688 0 0 1 39.900687-39.900688z m319.205503 0h175.563026a39.900688 39.900688 0 0 1 39.900688 39.900688v175.563026a39.900688 39.900688 0 0 1-39.900688 39.900688h-175.563026a39.900688 39.900688 0 0 1-39.900688-39.900688v-175.563026a39.900688 39.900688 0 0 1 39.900688-39.900688z" fill="#5172FB" p-id="5857"></path><path d="M750.926219 846.681343h-175.563026a71.821238 71.821238 0 0 1-71.821238-71.821238 71.821238 71.821238 0 0 1-71.821238 71.821238h-175.563027a71.821238 71.821238 0 0 1-71.821238-71.821238v-175.563026a71.821238 71.821238 0 0 1 71.821238-71.821238h175.563027a71.821238 71.821238 0 0 1 71.821238 71.821238 71.821238 71.821238 0 0 1 71.821238-71.821238h175.563026a71.821238 71.821238 0 0 1 71.821238 71.821238v175.563026a71.821238 71.821238 0 0 1-71.821238 71.821238z m-175.563026-287.284952a39.900688 39.900688 0 0 0-39.900688 39.900688v175.563026a39.900688 39.900688 0 0 0 39.900688 39.900688h175.563026a39.900688 39.900688 0 0 0 39.900688-39.900688v-175.563026a39.900688 39.900688 0 0 0-39.900688-39.900688z m-319.205503 0a39.900688 39.900688 0 0 0-39.900687 39.900688v175.563026a39.900688 39.900688 0 0 0 39.900687 39.900688h175.563027a39.900688 39.900688 0 0 0 39.900688-39.900688v-175.563026a39.900688 39.900688 0 0 0-39.900688-39.900688z m175.563027-31.92055h-175.563027a71.821238 71.821238 0 0 1-71.821238-71.821238v-175.563027a71.821238 71.821238 0 0 1 71.821238-71.821238h175.563027a71.821238 71.821238 0 0 1 71.821238 71.821238v175.563027a71.821238 71.821238 0 0 1-71.821238 71.821238z m-175.563027-287.284952a39.900688 39.900688 0 0 0-39.900687 39.900687v175.563027a39.900688 39.900688 0 0 0 39.900687 39.900688h175.563027a39.900688 39.900688 0 0 0 39.900688-39.900688v-175.563027a39.900688 39.900688 0 0 0-39.900688-39.900687z" p-id="5858"></path><path d="M750.926219 814.760793h-175.563026a39.900688 39.900688 0 0 1-39.900688-39.900688v-175.563026a39.900688 39.900688 0 0 1 39.900688-39.900688h175.563026a39.900688 39.900688 0 0 1 39.900688 39.900688v175.563026a39.900688 39.900688 0 0 1-39.900688 39.900688z m-175.563026-239.404127a23.940413 23.940413 0 0 0-23.940413 23.940413v175.563026a23.940413 23.940413 0 0 0 23.940413 23.940413h175.563026a23.940413 23.940413 0 0 0 23.940413-23.940413v-175.563026a23.940413 23.940413 0 0 0-23.940413-23.940413z m-143.642476 239.404127h-175.563027a39.900688 39.900688 0 0 1-39.900687-39.900688v-175.563026a39.900688 39.900688 0 0 1 39.900687-39.900688h175.563027a39.900688 39.900688 0 0 1 39.900688 39.900688v175.563026a39.900688 39.900688 0 0 1-39.900688 39.900688z m-175.563027-239.404127a23.940413 23.940413 0 0 0-23.940412 23.940413v175.563026a23.940413 23.940413 0 0 0 23.940412 23.940413h175.563027a23.940413 23.940413 0 0 0 23.940412-23.940413v-175.563026a23.940413 23.940413 0 0 0-23.940412-23.940413z m175.563027-79.801375h-175.563027a39.900688 39.900688 0 0 1-39.900687-39.900688v-175.563027a39.900688 39.900688 0 0 1 39.900687-39.900687h175.563027a39.900688 39.900688 0 0 1 39.900688 39.900687v175.563027a39.900688 39.900688 0 0 1-39.900688 39.900688z m-175.563027-239.404127a23.940413 23.940413 0 0 0-23.940412 23.940412v175.563027a23.940413 23.940413 0 0 0 23.940412 23.940413h175.563027a23.940413 23.940413 0 0 0 23.940412-23.940413v-175.563027a23.940413 23.940413 0 0 0-23.940412-23.940412z" fill="#FFFFFF" p-id="5859"></path><path d="M431.720717 575.356666a23.940413 23.940413 0 0 1 23.940412 23.940413v175.563026a23.940413 23.940413 0 0 1-23.940412 23.940413h-175.563027a23.940413 23.940413 0 0 1-23.940412-23.940413h175.563026a23.940413 23.940413 0 0 0 23.940413-23.940412z m319.205502 0a23.940413 23.940413 0 0 1 23.940413 23.940413v175.563026a23.940413 23.940413 0 0 1-23.940413 23.940413h-175.563026a23.940413 23.940413 0 0 1-23.940413-23.940413h175.563027a23.940413 23.940413 0 0 0 23.940412-23.940412z m-319.205502-319.205502a23.940413 23.940413 0 0 1 23.940412 23.940412v175.563027a23.940413 23.940413 0 0 1-23.940412 23.940413h-175.563027a23.940413 23.940413 0 0 1-23.940412-23.940413h175.563026a23.940413 23.940413 0 0 0 23.940413-23.940413z" fill="#5172FB" opacity=".5" p-id="5860"></path><path d="M521.177171 351.956187m28.214047-28.214047l101.570569-101.570569q28.214047-28.214047 56.428094 0l101.570569 101.570569q28.214047 28.214047 0 56.428094l-101.570569 101.570569q-28.214047 28.214047-56.428094 0l-101.570569-101.570569q-28.214047-28.214047 0-56.428094Z" fill="#8C53FD" p-id="5861"></path><path d="M679.104981 531.864917a55.860963 55.860963 0 0 1-39.900688-15.960276l-123.692132-124.490146a55.860963 55.860963 0 0 1 0-79.003361l124.091139-124.170941a55.860963 55.860963 0 0 1 79.003362 0l124.170941 124.170941a55.860963 55.860963 0 0 1 0 79.003361L718.606662 515.505635a55.860963 55.860963 0 0 1-39.501681 16.359282z m0-328.063456a23.940413 23.940413 0 0 0-16.917891 7.022521L538.09595 334.915121a23.940413 23.940413 0 0 0 0 33.915585l124.09114 124.091139a24.499022 24.499022 0 0 0 33.915584 0l124.091139-124.091139a23.940413 23.940413 0 0 0 0-33.915585L696.102674 210.823982a23.940413 23.940413 0 0 0-16.997693-7.022521z" p-id="5862"></path><path d="M679.104981 490.048996a47.880825 47.880825 0 0 1-33.835783-14.045042L555.013842 385.588995a47.880825 47.880825 0 0 1 0-67.751368l90.255356-90.095753a47.880825 47.880825 0 0 1 67.751368 0l90.255356 90.255356a47.880825 47.880825 0 0 1 0 67.751368L712.860963 476.003954a47.880825 47.880825 0 0 1-33.755982 14.045042z m0-260.391889a31.92055 31.92055 0 0 0-22.583789 9.336761L566.265836 329.728032a31.92055 31.92055 0 0 0 0 45.087777l90.255356 89.936151a31.92055 31.92055 0 0 0 45.167578 0L792.023928 374.416802a31.92055 31.92055 0 0 0 0-45.087777L701.68877 238.993868a31.92055 31.92055 0 0 0-22.583789-9.336761z" fill="#FFFFFF" p-id="5863"></path></svg>