<?xml version="1.0" standalone="no"?><!DOCTYPE svg PUBLIC "-//W3C//DTD SVG 1.1//EN" "http://www.w3.org/Graphics/SVG/1.1/DTD/svg11.dtd"><svg t="1757319489267" class="icon" viewBox="0 0 1025 1024" version="1.1" xmlns="http://www.w3.org/2000/svg" p-id="5060" xmlns:xlink="http://www.w3.org/1999/xlink" width="200.1953125" height="200"><path d="M1023.146 1023.144734H0.78872V0.787455h1022.35728zM4.782303 1019.151151h1014.370113V4.781038H4.782303z" opacity=".5" p-id="5061"></path><path d="M0.78872 1023.943451a0.718845 0.718845 0 0 1-0.559102 0 0.798717 0.798717 0 0 1 0-1.118203l1022.35728-1022.35728a0.798717 0.798717 0 0 1 1.118203 0 0.798717 0.798717 0 0 1 0 1.118203l-1022.357279 1022.35728a0.718845 0.718845 0 0 1-0.559102 0z" opacity=".5" p-id="5062"></path><path d="M1023.146 1023.943451a0.718845 0.718845 0 0 1-0.559102 0L0.229618 1.346556a0.798717 0.798717 0 0 1 0-1.118203 0.798717 0.798717 0 0 1 1.118204 0l1022.357279 1022.35728a0.798717 0.798717 0 0 1 0 1.118203 0.718845 0.718845 0 0 1-0.559101 0.239615z" opacity=".5" p-id="5063"></path><path d="M929.935769 853.577195H93.99895a8.785883 8.785883 0 0 1-8.785883-8.785883V179.140877a8.785883 8.785883 0 0 1 8.785883-8.785883h835.936819a8.785883 8.785883 0 0 1 8.785883 8.785883v665.650435a8.785883 8.785883 0 0 1-8.785883 8.785883zM93.99895 171.952427a7.18845 7.18845 0 0 0-7.18845 7.18845v665.650435a7.18845 7.18845 0 0 0 7.18845 7.18845h835.936819a7.18845 7.18845 0 0 0 7.18845-7.18845V179.140877a7.18845 7.18845 0 0 0-7.18845-7.18845z" opacity=".5" p-id="5064"></path><path d="M844.792577 938.720387H179.142142a8.785883 8.785883 0 0 1-8.785883-8.785883V93.997685a8.785883 8.785883 0 0 1 8.785883-8.785883h665.650435a8.785883 8.785883 0 0 1 8.785883 8.785883v835.936819a8.785883 8.785883 0 0 1-8.785883 8.785883zM179.142142 86.809235a7.18845 7.18845 0 0 0-7.188449 7.18845v835.936819a7.18845 7.18845 0 0 0 7.188449 7.18845h665.650435a7.18845 7.18845 0 0 0 7.18845-7.18845V93.997685a7.18845 7.18845 0 0 0-7.18845-7.18845z" opacity=".5" p-id="5065"></path><path d="M887.364173 896.148791H136.570546a8.785883 8.785883 0 0 1-8.785883-8.785883V136.569281a8.785883 8.785883 0 0 1 8.785883-8.785883h750.793627a8.785883 8.785883 0 0 1 8.785883 8.785883v750.793627a8.785883 8.785883 0 0 1-8.785883 8.785883z m-750.793627-766.76796a7.18845 7.18845 0 0 0-7.188449 7.18845v750.793627a7.18845 7.18845 0 0 0 7.188449 7.18845h750.793627a7.18845 7.18845 0 0 0 7.18845-7.18845V136.569281a7.18845 7.18845 0 0 0-7.18845-7.18845z" opacity=".5" p-id="5066"></path><path d="M511.96736 937.92167A425.955576 425.955576 0 1 1 937.922936 511.966094 426.434806 426.434806 0 0 1 511.96736 937.92167z m0-850.313718A424.358143 424.358143 0 1 0 936.325502 511.966094 424.837373 424.837373 0 0 0 511.96736 87.607952z" opacity=".5" p-id="5067"></path><path d="M511.96736 724.983818A213.017724 213.017724 0 1 1 724.985084 511.966094 213.33721 213.33721 0 0 1 511.96736 724.983818z m0-424.438014A211.420291 211.420291 0 1 0 723.38765 511.966094 211.739777 211.739777 0 0 0 511.96736 300.545804z" opacity=".5" p-id="5068"></path><path d="M226.026808 307.255024l252.394454-145.685913a66.692838 66.692838 0 0 1 67.092196 0l252.394453 145.685913a67.25194 67.25194 0 0 1 33.546099 58.14657v291.371825a67.172068 67.172068 0 0 1-33.546099 58.14657l-252.394453 145.765784a67.491555 67.491555 0 0 1-67.092196 0L226.026808 714.919989a67.172068 67.172068 0 0 1-33.546098-58.14657V365.321722a67.172068 67.172068 0 0 1 33.546098-58.066698z" fill="#4ED06E" p-id="5069"></path><path d="M511.96736 901.500192a99.360348 99.360348 0 0 1-49.520431-13.178824L210.132347 742.555584a98.322016 98.322016 0 0 1-36.341606-36.261735 99.520091 99.520091 0 0 1-13.258696-49.52043V365.321722a99.200605 99.200605 0 0 1 49.600302-85.702294L462.446929 133.853644a100.798038 100.798038 0 0 1 99.040861 0l252.394454 145.765784a99.360348 99.360348 0 0 1 49.520431 85.782166v291.371825a98.721375 98.721375 0 0 1-13.258696 49.52043 99.91945 99.91945 0 0 1-36.261735 36.261735l-252.394454 145.765784a99.120733 99.120733 0 0 1-49.52043 13.178824zM511.96736 152.543613a67.092196 67.092196 0 0 0-33.546098 9.025498L226.10668 307.334895A66.932453 66.932453 0 0 0 192.48071 365.321722v291.451697a67.25194 67.25194 0 0 0 33.62597 58.14657l252.314582 145.765784a67.491555 67.491555 0 0 0 67.092196 0l252.394453-145.765784a67.012325 67.012325 0 0 0 33.546099-58.14657V365.401594a67.172068 67.172068 0 0 0-33.546099-58.066699L545.513458 161.569111A66.852581 66.852581 0 0 0 511.96736 152.543613z" p-id="5070"></path><path d="M511.96736 869.631399a67.890913 67.890913 0 0 1-33.546098-8.945626L226.026808 714.840117a67.172068 67.172068 0 0 1-33.546098-58.066698V365.321722a67.172068 67.172068 0 0 1 33.62597-58.066698L478.421262 161.569111a67.890913 67.890913 0 0 1 67.092196 0l252.394453 145.685913a67.411683 67.411683 0 0 1 33.546099 58.14657v291.371825a67.012325 67.012325 0 0 1-33.546099 58.14657l-252.394453 145.685912a66.932453 66.932453 0 0 1-33.546098 9.025498zM511.96736 168.517946a51.277607 51.277607 0 0 0-25.558932 6.868963L234.013974 321.152693a51.277607 51.277607 0 0 0-25.558932 44.169029v291.451697a51.197736 51.197736 0 0 0 25.558932 44.248901l252.394454 145.765784a51.277607 51.277607 0 0 0 51.117864 0l252.394453-145.765784a51.197736 51.197736 0 0 0 25.558932-44.248901V365.401594a51.277607 51.277607 0 0 0-25.558932-44.248901L537.526292 175.386909A51.277607 51.277607 0 0 0 511.96736 168.517946z" fill="#FFFFFF" p-id="5071"></path><path d="M783.051782 316.040906h0.559102a63.89733 63.89733 0 0 1 31.948665 55.910164v278.352744a63.89733 63.89733 0 0 1-31.948665 55.910164L543.916025 845.110799a63.89733 63.89733 0 0 1-63.89733 0L240.403707 705.814619a64.296688 64.296688 0 0 1-23.482268-23.961498l239.614987 139.056564a63.89733 63.89733 0 0 0 63.89733 0L759.569513 681.853121a63.89733 63.89733 0 0 0 31.948665-55.910164V347.9097a64.616175 64.616175 0 0 0-8.466396-31.868794z" fill="#4ED06E" opacity=".5" p-id="5072"></path><path d="M491.999444 490.001387l-125.318638-72.363726a39.935831 39.935831 0 0 1 0-69.248731l125.318638-72.283855a39.935831 39.935831 0 0 1 39.935831 0l125.318639 72.283855a39.935831 39.935831 0 0 1 0 69.248731L531.935275 490.001387a39.935831 39.935831 0 0 1-39.935831 0z" fill="#D1EBD9" p-id="5073"></path><path d="M485.689583 696.150148a39.935831 39.935831 0 0 1-59.983619 34.664302l-125.318638-72.363727A39.935831 39.935831 0 0 1 280.339539 623.786422V479.138841a39.935831 39.935831 0 0 1 59.983618-34.58443l125.318639 72.363727A39.935831 39.935831 0 0 1 485.689583 551.901926z" fill="#FFFFFF" p-id="5074"></path><path d="M558.292924 516.918138l125.318638-72.363727A39.935831 39.935831 0 0 1 743.595181 479.218713V623.786422a39.935831 39.935831 0 0 1-20.047787 34.58443L598.308627 730.81445a39.935831 39.935831 0 0 1-59.983619-34.664302V551.901926a39.935831 39.935831 0 0 1 19.967916-34.58443z" fill="#F4FF5B" p-id="5075"></path></svg>