<?xml version="1.0" standalone="no"?><!DOCTYPE svg PUBLIC "-//W3C//DTD SVG 1.1//EN" "http://www.w3.org/Graphics/SVG/1.1/DTD/svg11.dtd"><svg t="1757319889459" class="icon" viewBox="0 0 1025 1024" version="1.1" xmlns="http://www.w3.org/2000/svg" p-id="6351" xmlns:xlink="http://www.w3.org/1999/xlink" width="200.1953125" height="200"><path d="M1023.146 1023.144734H0.78872V0.787455h1022.35728zM4.782303 1019.151151h1014.370113V4.781038H4.782303z" opacity=".5" p-id="6352"></path><path d="M0.78872 1023.943451a0.718845 0.718845 0 0 1-0.559102 0 0.798717 0.798717 0 0 1 0-1.118203l1022.35728-1022.35728a0.798717 0.798717 0 0 1 1.118203 0 0.798717 0.798717 0 0 1 0 1.118203l-1022.357279 1022.35728a0.718845 0.718845 0 0 1-0.559102 0z" opacity=".5" p-id="6353"></path><path d="M1023.146 1023.943451a0.718845 0.718845 0 0 1-0.559102 0L0.229618 1.346556a0.798717 0.798717 0 0 1 0-1.118203 0.798717 0.798717 0 0 1 1.118204 0l1022.357279 1022.35728a0.798717 0.798717 0 0 1 0 1.118203 0.718845 0.718845 0 0 1-0.559101 0.239615z" opacity=".5" p-id="6354"></path><path d="M929.935769 853.577195H93.99895a8.785883 8.785883 0 0 1-8.785883-8.785883V179.140877a8.785883 8.785883 0 0 1 8.785883-8.785883h835.936819a8.785883 8.785883 0 0 1 8.785883 8.785883v665.650435a8.785883 8.785883 0 0 1-8.785883 8.785883zM93.99895 171.952427a7.18845 7.18845 0 0 0-7.18845 7.18845v665.650435a7.18845 7.18845 0 0 0 7.18845 7.18845h835.936819a7.18845 7.18845 0 0 0 7.18845-7.18845V179.140877a7.18845 7.18845 0 0 0-7.18845-7.18845z" opacity=".5" p-id="6355"></path><path d="M844.792577 938.720387H179.142142a8.785883 8.785883 0 0 1-8.785883-8.785883V93.997685a8.785883 8.785883 0 0 1 8.785883-8.785883h665.650435a8.785883 8.785883 0 0 1 8.785883 8.785883v835.936819a8.785883 8.785883 0 0 1-8.785883 8.785883zM179.142142 86.809235a7.18845 7.18845 0 0 0-7.188449 7.18845v835.936819a7.18845 7.18845 0 0 0 7.188449 7.18845h665.650435a7.18845 7.18845 0 0 0 7.18845-7.18845V93.997685a7.18845 7.18845 0 0 0-7.18845-7.18845z" opacity=".5" p-id="6356"></path><path d="M887.364173 896.148791H136.570546a8.785883 8.785883 0 0 1-8.785883-8.785883V136.569281a8.785883 8.785883 0 0 1 8.785883-8.785883h750.793627a8.785883 8.785883 0 0 1 8.785883 8.785883v750.793627a8.785883 8.785883 0 0 1-8.785883 8.785883z m-750.793627-766.76796a7.18845 7.18845 0 0 0-7.188449 7.18845v750.793627a7.18845 7.18845 0 0 0 7.188449 7.18845h750.793627a7.18845 7.18845 0 0 0 7.18845-7.18845V136.569281a7.18845 7.18845 0 0 0-7.18845-7.18845z" opacity=".5" p-id="6357"></path><path d="M511.96736 937.92167A425.955576 425.955576 0 1 1 937.922936 511.966094 426.434806 426.434806 0 0 1 511.96736 937.92167z m0-850.313718A424.358143 424.358143 0 1 0 936.325502 511.966094 424.837373 424.837373 0 0 0 511.96736 87.607952z" opacity=".5" p-id="6358"></path><path d="M511.96736 724.983818A213.017724 213.017724 0 1 1 724.985084 511.966094 213.33721 213.33721 0 0 1 511.96736 724.983818z m0-424.438014A211.420291 211.420291 0 1 0 723.38765 511.966094 211.739777 211.739777 0 0 0 511.96736 300.545804z" opacity=".5" p-id="6359"></path><path d="M799.505345 248.389608v302.713601a291.691311 291.691311 0 0 1-583.063136 0V248.389608a15.974332 15.974332 0 0 1 15.974332-15.974332h98.561632a15.974332 15.974332 0 0 1 15.974332 15.974332v295.525151a160.222555 160.222555 0 0 0 158.465378 159.743325h2.715637A160.302427 160.302427 0 0 0 669.314535 546.151166V248.389608a15.974332 15.974332 0 0 1 15.974332-15.974332H783.531012a15.974332 15.974332 0 0 1 15.974333 15.974332z" fill="#9154FD" p-id="6360"></path><path d="M508.13352 871.388576a323.639976 323.639976 0 0 1-228.752441-93.689461A316.531398 316.531398 0 0 1 184.493544 551.103209V248.389608a47.922997 47.922997 0 0 1 47.922997-47.922997h98.561632a47.922997 47.922997 0 0 1 47.922997 47.922997v295.525151A125.638125 125.638125 0 0 0 416.121365 632.732048a129.392093 129.392093 0 0 0 89.695877 38.178655 133.864906 133.864906 0 0 0 92.651128-36.581222 124.679665 124.679665 0 0 0 38.8975-88.577673V248.389608a47.922997 47.922997 0 0 1 47.922997-47.922997H783.531012a47.922997 47.922997 0 0 1 47.922998 47.922997v302.713601a316.211912 316.211912 0 0 1-94.64792 226.595906A323.32049 323.32049 0 0 1 508.13352 871.388576zM232.416541 232.415276a15.974332 15.974332 0 0 0-15.974332 15.974332v302.713601a284.90222 284.90222 0 0 0 85.462678 203.912354 294.087461 294.087461 0 0 0 412.457265 0A284.90222 284.90222 0 0 0 799.505345 551.103209V248.389608a15.974332 15.974332 0 0 0-15.974333-15.974332H685.288867a15.974332 15.974332 0 0 0-15.974332 15.974332v297.681686a156.468587 156.468587 0 0 1-48.801586 111.341098A165.7337 165.7337 0 0 1 505.577627 702.859368a161.340758 161.340758 0 0 1-112.379429-47.922998 157.347175 157.347175 0 0 1-46.245693-111.820327V248.389608a15.974332 15.974332 0 0 0-15.974332-15.974332z" p-id="6361"></path><path d="M508.13352 839.439911A291.212081 291.212081 0 0 1 301.904887 755.015563 284.90222 284.90222 0 0 1 216.442209 551.103209V248.389608a15.974332 15.974332 0 0 1 15.974332-15.974332h98.561632a15.974332 15.974332 0 0 1 15.974332 15.974332v295.525151a157.347175 157.347175 0 0 0 46.245693 111.820328 161.500501 161.500501 0 0 0 111.820327 47.922997 165.494085 165.494085 0 0 0 115.015194-45.446976 156.62833 156.62833 0 0 0 49.280816-112.059942V248.389608a15.974332 15.974332 0 0 1 4.712428-11.341776A15.974332 15.974332 0 0 1 685.288867 232.415276H783.531012a15.974332 15.974332 0 0 1 15.974333 15.974332v302.713601a284.90222 284.90222 0 0 1-85.462679 203.912354A291.291953 291.291953 0 0 1 508.13352 839.439911zM232.416541 248.389608v302.713601A269.007759 269.007759 0 0 0 313.08692 743.593916a278.113129 278.113129 0 0 0 390.0932 0A269.007759 269.007759 0 0 0 783.531012 551.103209V248.389608H685.288867v297.84143A172.442919 172.442919 0 0 1 631.774853 668.993783a181.62816 181.62816 0 0 1-126.197226 49.839917 177.235219 177.235219 0 0 1-123.48159-52.315939A173.321508 173.321508 0 0 1 330.978173 543.914759V248.389608z" fill="#FFFFFF" p-id="6362"></path><path d="M768.595011 232.415276a15.974332 15.974332 0 0 1 15.974333 15.574974v294.96605c0 155.110769-123.641333 280.908637-276.116337 280.908636a273.240957 273.240957 0 0 1-204.870815-92.651128 272.362369 272.362369 0 0 0 181.548289 69.328603c150.957442 0 273.640316-123.321847 276.036466-276.276081V232.415276z" fill="#9154FD" opacity=".5" p-id="6363"></path><path d="M661.646855 232.415276m15.974333 0l113.89699 0q15.974332 0 15.974333 15.974332l0 112.219686q0 15.974332-15.974333 15.974333l-113.89699 0q-15.974332 0-15.974333-15.974333l0-112.219686q0-15.974332 15.974333-15.974332Z" fill="#F8563B" p-id="6364"></path><path d="M807.492511 408.532292H661.646855a31.948665 31.948665 0 0 1-31.948665-31.948665V232.415276a31.948665 31.948665 0 0 1 31.948665-31.948665H807.492511a31.948665 31.948665 0 0 1 31.948665 31.948665v143.768992a31.948665 31.948665 0 0 1-31.948665 32.348024zM661.646855 232.415276v143.768992H807.492511V232.415276z" p-id="6365"></path><path d="M783.531012 376.583627H685.608354a23.961499 23.961499 0 0 1-23.961499-23.961499V256.376775a23.961499 23.961499 0 0 1 23.961499-23.961499H783.531012a23.961499 23.961499 0 0 1 23.961499 23.961499v95.845995a23.961499 23.961499 0 0 1-23.961499 24.360857zM685.608354 248.389608a7.987166 7.987166 0 0 0-7.987166 7.987167v95.845995a7.987166 7.987166 0 0 0 7.987166 7.987166H783.531012a7.987166 7.987166 0 0 0 7.987166-7.987166V256.376775a7.987166 7.987166 0 0 0-7.987166-7.987167z" fill="#FFFFFF" p-id="6366"></path><path d="M216.442209 232.415276m15.974332 0l113.896991 0q15.974332 0 15.974332 15.974332l0 112.219686q0 15.974332-15.974332 15.974333l-113.896991 0q-15.974332 0-15.974332-15.974333l0-112.219686q0-15.974332 15.974332-15.974332Z" fill="#5172FB" p-id="6367"></path><path d="M362.287864 408.532292H216.442209a31.948665 31.948665 0 0 1-31.948665-31.948665V232.415276a31.948665 31.948665 0 0 1 31.948665-31.948665h145.845655a31.948665 31.948665 0 0 1 31.948665 31.948665v143.768992a31.948665 31.948665 0 0 1-31.948665 32.348024zM216.442209 232.415276v143.768992h145.845655V232.415276z" p-id="6368"></path><path d="M338.326366 376.583627H240.403707a23.961499 23.961499 0 0 1-23.961498-23.961499V256.376775a23.961499 23.961499 0 0 1 23.961498-23.961499h97.922659a23.961499 23.961499 0 0 1 23.961498 23.961499v95.845995a23.961499 23.961499 0 0 1-23.961498 24.360857zM240.403707 248.389608a7.987166 7.987166 0 0 0-7.987166 7.987167v95.845995a7.987166 7.987166 0 0 0 7.987166 7.987166h97.922659a7.987166 7.987166 0 0 0 7.987166-7.987166V256.376775a7.987166 7.987166 0 0 0-7.987166-7.987167z" fill="#FFFFFF" p-id="6369"></path></svg>