<?xml version="1.0" standalone="no"?><!DOCTYPE svg PUBLIC "-//W3C//DTD SVG 1.1//EN" "http://www.w3.org/Graphics/SVG/1.1/DTD/svg11.dtd"><svg t="1757319448153" class="icon" viewBox="0 0 1025 1024" version="1.1" xmlns="http://www.w3.org/2000/svg" p-id="4387" xmlns:xlink="http://www.w3.org/1999/xlink" width="200.1953125" height="200"><path d="M1023.146 1023.144734H0.78872V0.787455h1022.35728zM4.782303 1019.151151h1014.370113V4.781038H4.782303z" opacity=".5" p-id="4388"></path><path d="M0.78872 1023.943451a0.718845 0.718845 0 0 1-0.559102 0 0.798717 0.798717 0 0 1 0-1.118203l1022.35728-1022.35728a0.798717 0.798717 0 0 1 1.118203 0 0.798717 0.798717 0 0 1 0 1.118203l-1022.357279 1022.35728a0.718845 0.718845 0 0 1-0.559102 0z" opacity=".5" p-id="4389"></path><path d="M1023.146 1023.943451a0.718845 0.718845 0 0 1-0.559102 0L0.229618 1.346556a0.798717 0.798717 0 0 1 0-1.118203 0.798717 0.798717 0 0 1 1.118204 0l1022.357279 1022.35728a0.798717 0.798717 0 0 1 0 1.118203 0.718845 0.718845 0 0 1-0.559101 0.239615z" opacity=".5" p-id="4390"></path><path d="M929.935769 853.577195H93.99895a8.785883 8.785883 0 0 1-8.785883-8.785883V179.140877a8.785883 8.785883 0 0 1 8.785883-8.785883h835.936819a8.785883 8.785883 0 0 1 8.785883 8.785883v665.650435a8.785883 8.785883 0 0 1-8.785883 8.785883zM93.99895 171.952427a7.18845 7.18845 0 0 0-7.18845 7.18845v665.650435a7.18845 7.18845 0 0 0 7.18845 7.18845h835.936819a7.18845 7.18845 0 0 0 7.18845-7.18845V179.140877a7.18845 7.18845 0 0 0-7.18845-7.18845z" opacity=".5" p-id="4391"></path><path d="M844.792577 938.720387H179.142142a8.785883 8.785883 0 0 1-8.785883-8.785883V93.997685a8.785883 8.785883 0 0 1 8.785883-8.785883h665.650435a8.785883 8.785883 0 0 1 8.785883 8.785883v835.936819a8.785883 8.785883 0 0 1-8.785883 8.785883zM179.142142 86.809235a7.18845 7.18845 0 0 0-7.188449 7.18845v835.936819a7.18845 7.18845 0 0 0 7.188449 7.18845h665.650435a7.18845 7.18845 0 0 0 7.18845-7.18845V93.997685a7.18845 7.18845 0 0 0-7.18845-7.18845z" opacity=".5" p-id="4392"></path><path d="M887.364173 896.148791H136.570546a8.785883 8.785883 0 0 1-8.785883-8.785883V136.569281a8.785883 8.785883 0 0 1 8.785883-8.785883h750.793627a8.785883 8.785883 0 0 1 8.785883 8.785883v750.793627a8.785883 8.785883 0 0 1-8.785883 8.785883z m-750.793627-766.76796a7.18845 7.18845 0 0 0-7.188449 7.18845v750.793627a7.18845 7.18845 0 0 0 7.188449 7.18845h750.793627a7.18845 7.18845 0 0 0 7.18845-7.18845V136.569281a7.18845 7.18845 0 0 0-7.18845-7.18845z" opacity=".5" p-id="4393"></path><path d="M511.96736 937.92167A425.955576 425.955576 0 1 1 937.922936 511.966094 426.434806 426.434806 0 0 1 511.96736 937.92167z m0-850.313718A424.358143 424.358143 0 1 0 936.325502 511.966094 424.837373 424.837373 0 0 0 511.96736 87.607952z" opacity=".5" p-id="4394"></path><path d="M511.96736 724.983818A213.017724 213.017724 0 1 1 724.985084 511.966094 213.33721 213.33721 0 0 1 511.96736 724.983818z m0-424.438014A211.420291 211.420291 0 1 0 723.38765 511.966094 211.739777 211.739777 0 0 0 511.96736 300.545804z" opacity=".5" p-id="4395"></path><path d="M859.648706 589.681222C836.805411 390.720911 796.310478 248.389608 668.036588 248.389608 603.021055 248.389608 569.6347 315.162318 511.96736 320.274105c-59.823875-5.27153-91.453054-71.884496-156.468587-71.884497-128.593377 0-169.008438 142.331303-190.493915 339.534437-12.459979 105.510466-1.757177 193.369295 63.258357 193.369295 91.453054 0 94.967407-82.587299 160.302426-121.245183 24.600472-12.300236 79.072946-17.971124 124.839409-19.328943 45.686591 1.757177 100.159065 7.028706 124.759536 19.328943 65.015533 38.657885 68.529886 121.245184 160.302427 121.245183 62.93887 1.757177 71.884496-86.101652 61.181693-191.69199z" fill="#FF6A57" p-id="4396"></path><path d="M800.383933 813.242005h-2.555893c-71.884496 0-102.714958-41.772879-127.79466-75.239106l-3.035123-4.073455c-13.098953-17.571766-25.399189-34.185072-44.328773-45.846334-10.063829-4.632556-37.45981-12.619723-109.663793-15.415231-51.517222 1.597433-92.25177 7.428065-109.424177 15.495103a148.082062 148.082062 0 0 0-40.574805 40.415061l-8.865754 11.900878c-28.673927 38.338398-59.983619 72.763085-126.117355 72.763084a84.823706 84.823706 0 0 1-55.910164-19.7283 109.743664 109.743664 0 0 1-32.427895-51.277608c-12.140493-37.060451-14.297028-90.254979-6.389733-157.986148 14.137284-130.19081 34.744173-213.81644 66.77271-271.004551a196.644033 196.644033 0 0 1 65.015533-71.884496A165.653828 165.653828 0 0 1 355.179286 216.440943C400.147032 216.440943 432.095697 240.402442 458.133859 259.491769l7.268322 5.431273C480.817411 276.34469 494.954696 285.92929 511.96736 288.32544c17.332151-2.555893 32.66751-13.897669 48.961329-25.958291l3.35461-2.476021c31.948665-23.961499 62.539512-43.450184 103.833161-43.450185a165.653828 165.653828 0 0 1 90.095235 24.919959 197.123263 197.123263 0 0 1 65.095405 71.884496c31.948665 57.028367 53.034784 141.133228 68.130528 272.761728 6.948835 69.16886 4.632556 122.283515-6.868963 158.225763a105.989696 105.989696 0 0 1-31.389563 50.319147 79.871662 79.871662 0 0 1-52.795169 18.689969z m-287.058755-172.522791h0.559102c61.900538 2.39615 102.235728 8.62614 123.561461 18.929584l1.277947 0.718845a192.490707 192.490707 0 0 1 54.152987 54.472474l3.035123 4.153327c27.955082 37.619553 50.159404 62.220025 102.3156 62.299896a47.922997 47.922997 0 0 0 34.264943-11.102161 74.680004 74.680004 0 0 0 21.565349-35.622761c10.143701-31.948665 11.980749-80.510636 5.511145-145.046939-14.536643-126.995943-34.344815-207.666322-63.89733-260.621235a166.532416 166.532416 0 0 0-54.312731-60.54272 132.58696 132.58696 0 0 0-73.322186-19.967916c-31.948665 0-56.469265 15.974332-85.223064 37.300067l-3.354609 2.39615c-19.408814 14.376899-39.935831 29.233028-66.053865 31.948665L511.96736 320.274105h-1.757177c-25.239445-2.715637-44.488516-15.974332-63.89733-29.712259l-7.348193-5.351401C410.929707 264.363941 386.888336 248.389608 355.179286 248.389608a132.58696 132.58696 0 0 0-73.002699 19.967916 165.414213 165.414213 0 0 0-54.232859 60.462848c-29.79213 53.354271-49.200944 133.225933-62.93887 259.023802-7.268321 62.299897-5.511145 111.820327 5.031915 144.487837a78.833331 78.833331 0 0 0 22.443937 36.740965 53.194527 53.194527 0 0 0 35.622761 12.220364c51.676966 0 74.280646-24.840087 100.558423-59.983618l8.945627-11.98075a178.433294 178.433294 0 0 1 50.239275-48.961329l1.198075-0.638973c27.39598-13.338568 82.347684-17.731509 123.561462-19.009456z" p-id="4397"></path><path d="M800.304061 781.29334h-1.837048c-56.309522 0-79.871662-31.948665-102.555215-62.299896l-3.035123-4.153327c-15.974332-21.804964-31.948665-41.054035-54.712089-54.79196-19.808172-9.904086-65.494763-17.092536-124.759536-19.328943-44.089158 1.357818-100.478551 7.108578-124.839409 19.328943a179.711241 179.711241 0 0 0-50.798377 49.280815l-7.108578 9.504728c-22.843295 30.75059-46.405436 62.45964-102.395471 62.45964A53.993244 53.993244 0 0 1 192.48071 769.072976a77.794999 77.794999 0 0 1-22.603681-36.740965c-10.702803-32.66751-12.380108-81.309352-5.031914-144.407966 13.658054-125.87774 33.14674-205.749403 62.93887-259.103673a163.417421 163.417421 0 0 1 54.232859-60.462848 134.184393 134.184393 0 0 1 73.162442-19.967916c34.264943 0 58.6258 18.050996 82.267813 35.54289l1.677305 1.277947c21.565349 15.974332 43.849543 32.507767 71.884496 35.143531 28.274569-2.635765 50.478891-18.929584 71.884496-34.664301l1.677305-1.277947c23.961499-17.731509 48.961329-36.02212 83.545759-36.02212a134.184393 134.184393 0 0 1 73.002699 19.967916 164.615496 164.615496 0 0 1 54.312731 60.54272c30.27136 53.913372 49.440559 131.947986 63.89733 260.86085 6.469605 65.33502 4.712428 112.698916-5.591017 144.807324a74.041031 74.041031 0 0 1-21.565348 35.622761 48.801586 48.801586 0 0 1-31.868794 11.102161z m-286.899011-156.548458c36.740965 1.357818 101.916241 5.990375 132.427216 21.245862 26.197905 15.974332 43.210569 36.98058 59.903747 59.344645l3.035123 4.153327c22.204322 29.951873 41.453393 55.910164 89.935492 55.910163a33.785713 33.785713 0 0 0 23.56214-7.348192 59.903747 59.903747 0 0 0 16.613306-28.274569c9.584599-29.951873 11.182033-75.239106 4.872172-138.257848-9.664471-84.024989-25.47906-188.976353-62.379769-254.710731a147.443089 147.443089 0 0 0-48.881457-54.871832 117.171729 117.171729 0 0 0-64.456432-17.571766c-29.3129 0-51.037992 15.974332-74.041031 32.907125l-1.757176 1.277946c-22.284194 15.974332-47.922997 34.983788-80.67038 37.779297h-1.357818c-32.827253-2.87538-58.226442-21.725092-80.590507-38.258527l-1.677305-1.277946C405.418562 280.338273 384.1727 264.363941 355.179286 264.363941a117.171729 117.171729 0 0 0-64.456431 17.491894 147.602832 147.602832 0 0 0-48.801586 54.79196c-28.753798 51.357479-47.922997 129.392093-61.02195 253.033427-7.108578 60.862207-5.670888 107.187771 4.31307 137.698746a62.779127 62.779127 0 0 0 17.731509 29.392772 37.539681 37.539681 0 0 0 25.319317 8.546268c47.922997 0 67.25194-25.95829 89.536133-55.910164l7.18845-9.584599a192.730322 192.730322 0 0 1 55.910164-53.753629c34.1052-17.172407 110.063151-20.686761 132.507088-21.325734z" fill="#FFFFFF" p-id="4398"></path><path d="M754.857085 296.312606c29.233028 25.95829 49.041201 70.12732 63.338229 127.235558l1.837048 7.507936c0.559102 2.555893 1.198075 5.111786 1.757176 7.987167l1.677305 7.987166 1.677305 7.987166 1.597434 7.987166c0.47923 2.715637 1.038332 5.511145 1.517561 7.987167l1.517562 7.987166 0.718845 4.233198 1.43769 8.546268 1.357818 8.626139 1.277946 8.785883 1.277947 8.945626 1.277947 9.025498 1.198075 9.185242 1.118203 9.265112 1.118203 9.344985 1.118203 9.504728 1.038332 9.584599 1.038332 9.664471c0 1.597433 0 3.274738 0.559101 4.872172l0.718845 8.945626 0.638974 8.945626 0.638973 8.706011v67.012325l-0.399358 4.7923-0.47923 4.632556-0.47923 4.552685v2.316278l-0.638974 4.392942v2.156535l-0.718845 4.233198-0.878588 4.073455a14.696386 14.696386 0 0 1 0 1.996791l-0.95846 3.993583c-7.348193 29.632387-21.645221 47.922997-45.846334 47.922998h-1.517562a80.350892 80.350892 0 0 1-66.373351-31.948665l-2.555893-3.114995-1.198075-1.597433-2.476022-3.194867-2.156535-1.198075a77.315769 77.315769 0 0 0 51.117864 18.929584h2.715637c25.079702 0.798717 39.935831-17.651637 47.443767-47.922997l0.878588-3.913712 0.47923-2.076663 0.798717-4.073455 0.718845-4.233198 0.718845-4.392941a20.047787 20.047787 0 0 1 0-2.156535l0.559102-4.552685v-2.316278l0.47923-4.632557v-4.792299V652.699964v-47.843126-2.795508l-0.47923-8.62614v-5.830631l-0.638974-8.865755-0.718845-8.945626v-3.035123l-0.239615-11.421648-1.198075-10.942418-1.277946-10.782674-1.277947-10.702803-1.357818-10.463188c0-1.757177 0-3.514353-0.638973-5.271529l-1.43769-10.303445-1.43769-10.143701-1.517562-9.983958c0-1.677305-0.47923-3.274738-0.798716-4.952043l-1.597434-9.744343C799.026115 392.717702 782.492681 336.248437 756.374647 298.469141z" fill="#FF6A57" opacity=".5" p-id="4399"></path><path d="M356.616976 571.78997A91.453054 91.453054 0 1 1 448.07003 479.378456v1.357818a91.213439 91.213439 0 0 1-91.453054 91.053696z" fill="#FFECA0" p-id="4400"></path><path d="M766.438476 497.988554h-72.044239v72.363726h-35.143532v-72.363726h-72.044239v-35.143532h72.044239v-70.366935h35.143532v70.366935h72.044239v35.143532z" fill="#FFECA0" p-id="4401"></path><path d="M303.821807 480.416788a50.159404 50.159404 0 0 0 15.974333 36.900708 54.552345 54.552345 0 0 0 36.900708 15.974332 50.399019 50.399019 0 0 0 36.900708-15.974332 55.910164 55.910164 0 0 0 15.974332-36.900708 49.999661 49.999661 0 0 0-15.974332-36.900708 53.8335 53.8335 0 0 0-36.900708-15.974333 54.79196 54.79196 0 0 0-53.114656 52.715297z" fill="#61CF69" p-id="4402"></path></svg>