<?xml version="1.0" standalone="no"?><!DOCTYPE svg PUBLIC "-//W3C//DTD SVG 1.1//EN" "http://www.w3.org/Graphics/SVG/1.1/DTD/svg11.dtd"><svg t="1757319833657" class="icon" viewBox="0 0 1025 1024" version="1.1" xmlns="http://www.w3.org/2000/svg" p-id="6182" xmlns:xlink="http://www.w3.org/1999/xlink" width="200.1953125" height="200"><path d="M1019.784575 1019.78072H0.78872v-1018.995854h1018.995855zM4.769173 1016.039095h1011.034949V5.004145H4.769173z" opacity=".5" p-id="6183"></path><path d="M0.78872 1020.576811a0.716481 0.716481 0 0 1-0.557263 0 0.796091 0.796091 0 0 1 0-1.114527l1018.995854-1018.995855a0.796091 0.796091 0 0 1 1.114527 0 0.796091 0.796091 0 0 1 0 1.114527l-1018.995855 1018.995855a0.716481 0.716481 0 0 1-0.557263 0z" opacity=".5" p-id="6184"></path><path d="M1019.784575 1020.576811a0.716481 0.716481 0 0 1-0.557264 0L0.231457 1.342129a0.796091 0.796091 0 0 1 0-1.114527 0.796091 0.796091 0 0 1 1.114526 0l1018.995855 1018.995855a0.796091 0.796091 0 0 1 0 1.114527 0.716481 0.716481 0 0 1-0.557263 0.238827z" opacity=".5" p-id="6185"></path><path d="M926.880812 850.770705H93.692483a8.756996 8.756996 0 0 1-8.756996-8.756996V178.551877a8.756996 8.756996 0 0 1 8.756996-8.756996h833.188329a8.756996 8.756996 0 0 1 8.756996 8.756996v663.461832a8.756996 8.756996 0 0 1-8.756996 8.756996zM93.692483 171.387062a7.164815 7.164815 0 0 0-7.164815 7.164815v663.461832a7.164815 7.164815 0 0 0 7.164815 7.164815h833.188329a7.164815 7.164815 0 0 0 7.164815-7.164815V178.551877a7.164815 7.164815 0 0 0-7.164815-7.164815z" opacity=".5" p-id="6186"></path><path d="M842.017563 935.633953H178.555731a8.756996 8.756996 0 0 1-8.756995-8.756995V93.688628a8.756996 8.756996 0 0 1 8.756995-8.756995h663.461832a8.756996 8.756996 0 0 1 8.756996 8.756995V926.876958a8.756996 8.756996 0 0 1-8.756996 8.756995zM178.555731 86.523814a7.164815 7.164815 0 0 0-7.164814 7.164814V926.876958a7.164815 7.164815 0 0 0 7.164814 7.164814h663.461832a7.164815 7.164815 0 0 0 7.164815-7.164814V93.688628a7.164815 7.164815 0 0 0-7.164815-7.164814z" opacity=".5" p-id="6187"></path><path d="M884.449188 893.202329H136.124107a8.756996 8.756996 0 0 1-8.756996-8.756996v-748.32508a8.756996 8.756996 0 0 1 8.756996-8.756996h748.325081a8.756996 8.756996 0 0 1 8.756995 8.756996v748.32508a8.756996 8.756996 0 0 1-8.756995 8.756996z m-748.325081-764.246891a7.164815 7.164815 0 0 0-7.164815 7.164815v748.32508a7.164815 7.164815 0 0 0 7.164815 7.164815h748.325081a7.164815 7.164815 0 0 0 7.164814-7.164815v-748.32508a7.164815 7.164815 0 0 0-7.164814-7.164815z" opacity=".5" p-id="6188"></path><path d="M510.286647 934.837863a424.55507 424.55507 0 0 1-300.205732-724.442366 424.55507 424.55507 0 1 1 600.411464 600.411464A421.927971 421.927971 0 0 1 510.286647 934.837863z m0-847.517959a422.962889 422.962889 0 1 0 422.962889 422.962889A423.440543 423.440543 0 0 0 510.286647 87.319904z" opacity=".5" p-id="6189"></path><path d="M510.286647 722.600132a212.317339 212.317339 0 1 1 212.31734-212.317339A212.635776 212.635776 0 0 1 510.286647 722.600132zM510.286647 299.557635a210.725158 210.725158 0 1 0 210.725159 210.725158A211.043595 211.043595 0 0 0 510.286647 299.557635z" opacity=".5" p-id="6190"></path><path d="M295.342209 191.846588m63.687241 0l382.123446 0q63.687241 0 63.687241 63.687241l0 429.888876q0 63.687241-63.687241 63.687241l-382.123446 0q-63.687241 0-63.687241-63.687241l0-429.888876q0-63.687241 63.687241-63.687241Z" fill="#3657DA" p-id="6191"></path><path d="M757.074706 780.953567H343.10764a79.609051 79.609051 0 0 1-79.609051-79.609051v-461.732497a79.609051 79.609051 0 0 1 79.609051-79.609051h413.967066a79.609051 79.609051 0 0 1 79.609051 79.609051v461.732497a79.609051 79.609051 0 0 1-79.609051 79.609051z m-413.967066-589.106979a47.765431 47.765431 0 0 0-47.765431 47.765431v461.732497a47.765431 47.765431 0 0 0 47.765431 47.76543h413.967066a47.765431 47.765431 0 0 0 47.765431-47.76543v-461.732497a47.765431 47.765431 0 0 0-47.765431-47.765431z" p-id="6192"></path><path d="M733.191991 749.109946H366.990355a71.648146 71.648146 0 0 1-71.648146-71.648146v-413.967066a71.648146 71.648146 0 0 1 71.648146-71.648146h366.201636a71.648146 71.648146 0 0 1 71.648146 71.648146v413.967066a71.648146 71.648146 0 0 1-71.648146 71.648146z m-366.201636-541.341547a55.726336 55.726336 0 0 0-55.726336 55.726335v413.967066a55.726336 55.726336 0 0 0 55.726336 55.726336h366.201636a55.726336 55.726336 0 0 0 55.726335-55.726336v-413.967066a55.726336 55.726336 0 0 0-55.726335-55.726335z" fill="#FFFFFF" p-id="6193"></path><path d="M215.733158 271.45564m63.687241 0l382.123446 0q63.687241 0 63.68724 63.68724l0 429.888877q0 63.687241-63.68724 63.687241l-382.123446 0q-63.687241 0-63.687241-63.687241l0-429.888877q0-63.687241 63.687241-63.68724Z" fill="#539BF6" p-id="6194"></path><path d="M677.465655 860.562618H263.498589a79.609051 79.609051 0 0 1-79.609051-79.609051v-461.732497a79.609051 79.609051 0 0 1 79.609051-79.609051h413.967066a79.609051 79.609051 0 0 1 79.609051 79.609051v461.732497a79.609051 79.609051 0 0 1-79.609051 79.609051z m-413.967066-589.106978a47.765431 47.765431 0 0 0-47.765431 47.76543v461.732497a47.765431 47.765431 0 0 0 47.765431 47.765431h413.967066a47.765431 47.765431 0 0 0 47.76543-47.765431v-461.732497a47.765431 47.765431 0 0 0-47.76543-47.76543z" p-id="6195"></path><path d="M653.582939 828.718998H287.381304a71.648146 71.648146 0 0 1-71.648146-71.648146v-413.967066a71.648146 71.648146 0 0 1 71.648146-71.648146h366.201635a71.648146 71.648146 0 0 1 71.648146 71.648146v413.967066a71.648146 71.648146 0 0 1-71.648146 71.648146z m-366.201635-541.341548a55.726336 55.726336 0 0 0-55.726336 55.726336v413.967066a55.726336 55.726336 0 0 0 55.726336 55.726335h366.201635a55.726336 55.726336 0 0 0 55.726336-55.726335v-413.967066a55.726336 55.726336 0 0 0-55.726336-55.726336z" fill="#FFFFFF" p-id="6196"></path><path d="M709.309275 335.14288v429.888877a47.765431 47.765431 0 0 1-47.76543 47.76543H279.420399a47.765431 47.765431 0 0 1-46.491686-36.85899A63.687241 63.687241 0 0 0 271.459494 788.914472h350.279825a63.687241 63.687241 0 0 0 63.687241-63.687241v-398.045256a63.687241 63.687241 0 0 0-12.976275-38.53078A47.765431 47.765431 0 0 1 709.309275 335.14288z" fill="#539BF6" opacity=".5" p-id="6197"></path><path d="M335.146735 406.791026m15.92181 0l238.827153 0q15.92181 0 15.921811 15.921811l0 31.84362q0 15.92181-15.921811 15.92181l-238.827153 0q-15.92181 0-15.92181-15.92181l0-31.84362q0-15.92181 15.92181-15.921811Z" fill="#FFFFFF" p-id="6198"></path><path d="M335.146735 526.204603m15.92181 0l238.827153 0q15.92181 0 15.921811 15.92181l0 31.843621q0 15.92181-15.921811 15.92181l-238.827153 0q-15.92181 0-15.92181-15.92181l0-31.843621q0-15.92181 15.92181-15.92181Z" fill="#FFFFFF" p-id="6199"></path><path d="M335.146735 645.61818m15.92181 0l238.827153 0q15.92181 0 15.921811 15.92181l0 31.843621q0 15.92181-15.921811 15.92181l-238.827153 0q-15.92181 0-15.92181-15.92181l0-31.843621q0-15.92181 15.92181-15.92181Z" fill="#FDF74D" p-id="6200"></path></svg>