<?xml version="1.0" standalone="no"?><!DOCTYPE svg PUBLIC "-//W3C//DTD SVG 1.1//EN" "http://www.w3.org/Graphics/SVG/1.1/DTD/svg11.dtd"><svg t="1757319146804" class="icon" viewBox="0 0 1025 1024" version="1.1" xmlns="http://www.w3.org/2000/svg" p-id="4214" xmlns:xlink="http://www.w3.org/1999/xlink" width="200.1953125" height="200"><path d="M1023.146 1023.144734H0.78872V0.787455h1022.35728zM4.782303 1019.151151h1014.370113V4.781038H4.782303z" opacity=".5" p-id="4215"></path><path d="M0.78872 1023.943451a0.718845 0.718845 0 0 1-0.559102 0 0.798717 0.798717 0 0 1 0-1.118203l1022.35728-1022.35728a0.798717 0.798717 0 0 1 1.118203 0 0.798717 0.798717 0 0 1 0 1.118203l-1022.357279 1022.35728a0.718845 0.718845 0 0 1-0.559102 0z" opacity=".5" p-id="4216"></path><path d="M1023.146 1023.943451a0.718845 0.718845 0 0 1-0.559102 0L0.229618 1.346556a0.798717 0.798717 0 0 1 0-1.118203 0.798717 0.798717 0 0 1 1.118204 0l1022.357279 1022.35728a0.798717 0.798717 0 0 1 0 1.118203 0.718845 0.718845 0 0 1-0.559101 0.239615z" opacity=".5" p-id="4217"></path><path d="M929.935769 853.577195H93.99895a8.785883 8.785883 0 0 1-8.785883-8.785883V179.140877a8.785883 8.785883 0 0 1 8.785883-8.785883h835.936819a8.785883 8.785883 0 0 1 8.785883 8.785883v665.650435a8.785883 8.785883 0 0 1-8.785883 8.785883zM93.99895 171.952427a7.18845 7.18845 0 0 0-7.18845 7.18845v665.650435a7.18845 7.18845 0 0 0 7.18845 7.18845h835.936819a7.18845 7.18845 0 0 0 7.18845-7.18845V179.140877a7.18845 7.18845 0 0 0-7.18845-7.18845z" opacity=".5" p-id="4218"></path><path d="M844.792577 938.720387H179.142142a8.785883 8.785883 0 0 1-8.785883-8.785883V93.997685a8.785883 8.785883 0 0 1 8.785883-8.785883h665.650435a8.785883 8.785883 0 0 1 8.785883 8.785883v835.936819a8.785883 8.785883 0 0 1-8.785883 8.785883zM179.142142 86.809235a7.18845 7.18845 0 0 0-7.188449 7.18845v835.936819a7.18845 7.18845 0 0 0 7.188449 7.18845h665.650435a7.18845 7.18845 0 0 0 7.18845-7.18845V93.997685a7.18845 7.18845 0 0 0-7.18845-7.18845z" opacity=".5" p-id="4219"></path><path d="M887.364173 896.148791H136.570546a8.785883 8.785883 0 0 1-8.785883-8.785883V136.569281a8.785883 8.785883 0 0 1 8.785883-8.785883h750.793627a8.785883 8.785883 0 0 1 8.785883 8.785883v750.793627a8.785883 8.785883 0 0 1-8.785883 8.785883z m-750.793627-766.76796a7.18845 7.18845 0 0 0-7.188449 7.18845v750.793627a7.18845 7.18845 0 0 0 7.188449 7.18845h750.793627a7.18845 7.18845 0 0 0 7.18845-7.18845V136.569281a7.18845 7.18845 0 0 0-7.18845-7.18845z" opacity=".5" p-id="4220"></path><path d="M511.96736 937.92167a425.955576 425.955576 0 0 1-301.196039-726.832128 425.955576 425.955576 0 1 1 602.392078 602.392078A422.840581 422.840581 0 0 1 511.96736 937.92167z m0-850.313718A424.358143 424.358143 0 1 0 936.325502 511.966094 424.837373 424.837373 0 0 0 511.96736 87.607952z" opacity=".5" p-id="4221"></path><path d="M511.96736 724.983818A213.017724 213.017724 0 1 1 724.985084 511.966094 213.33721 213.33721 0 0 1 511.96736 724.983818z m0-424.438014A211.420291 211.420291 0 1 0 723.38765 511.966094 211.739777 211.739777 0 0 0 511.96736 300.545804z" opacity=".5" p-id="4222"></path><path d="M264.764564 499.426243h234.343458V189.923551c0-14.297028-15.974332-29.79213-27.87521-15.974332l-199.679156 284.343118c-13.897669 22.364065-18.610097 41.213778-6.389733 41.213778z" fill="#33D413" p-id="4223"></path><path d="M531.056687 531.374908H264.764564a37.220195 37.220195 0 0 1-33.386354-18.530225 44.248901 44.248901 0 0 1-4.952044-29.712259 120.686082 120.686082 0 0 1 17.891253-42.252109l0.47923-0.718845 201.276589-286.020423a45.686591 45.686591 0 0 1 26.677135-16.693178 44.408644 44.408644 0 0 1 31.229821 5.27153 55.910164 55.910164 0 0 1 27.076493 47.204152z m-259.90239-73.162442A90.254979 90.254979 0 0 0 258.055345 488.004596a12.699594 12.699594 0 0 0 0.798716 8.466396c1.038332 1.757177 1.996792 2.87538 5.910503 2.87538h234.343458V189.923551a23.162782 23.162782 0 0 0-3.114995-11.182032 22.683552 22.683552 0 0 0-7.987166-7.987167 12.300236 12.300236 0 0 0-8.865755-2.236406 13.817798 13.817798 0 0 0-7.987166 5.111786z" p-id="4224"></path><path d="M499.108022 499.426243H256.37804l1.43769-9.185241a86.50101 86.50101 0 0 1 13.418439-31.948665l202.235049-287.537985h3.993584c9.824214 0 15.335359 2.076663 18.689969 7.987167a23.162782 23.162782 0 0 1 3.114994 11.182032z m-223.081553-15.974332h207.107221V189.923551a6.549476 6.549476 0 0 0-0.878589-2.955251h-0.638973L284.333122 467.237964a98.00253 98.00253 0 0 0-8.306653 16.213947z" fill="#FFFFFF" p-id="4225"></path><path d="M524.267596 265.242529v234.183714h309.742307c14.297028 0 29.872002-15.974332 15.974332-27.795338l-284.582733-199.679156c-22.284194-13.897669-41.213778-18.530226-41.213778-6.389733z" fill="#FFCB30" p-id="4226"></path><path d="M834.009903 531.374908H492.318931V265.242529a37.140323 37.140323 0 0 1 18.610097-33.386355 43.849543 43.849543 0 0 1 29.632387-4.952043 120.686082 120.686082 0 0 1 42.252109 17.891253l0.718845 0.47923L869.792408 446.471331a45.287233 45.287233 0 0 1 16.693177 26.597264 44.248901 44.248901 0 0 1-5.351401 31.309692 56.788752 56.788752 0 0 1-47.124281 26.996621z m-309.742307-31.948665h309.742307a24.919959 24.919959 0 0 0 19.488685-11.022289 11.980749 11.980749 0 0 0 1.677305-8.865754 13.658054 13.658054 0 0 0-5.111786-7.987167l-284.582733-199.679156a90.81408 90.81408 0 0 0-29.552516-13.338568 13.258696 13.258696 0 0 0-8.546267 0.798717c-1.837048 1.118203-2.87538 2.076663-2.87538 5.910503z" p-id="4227"></path><path d="M834.009903 499.426243H524.267596V256.376775l9.185241 1.43769a86.820497 86.820497 0 0 1 31.948665 13.418439l288.176958 202.474664-0.399358 4.632557c-1.357818 15.654846-10.782674 21.086119-19.169199 21.086118z m-293.767975-15.974332h293.767975c0.399358 0 1.517562 0 2.316278-1.996792l-279.550819-196.644033a101.676626 101.676626 0 0 0-15.974332-7.987166z" fill="#FFFFFF" p-id="4228"></path><path d="M758.371438 524.505945H524.027981v309.502693c0 14.297028 15.974332 29.872002 27.87521 15.974332l199.679156-284.343118c13.977541-22.364065 18.610097-41.213778 6.389733-41.213778z" fill="#FF1843" p-id="4229"></path><path d="M541.679618 887.362908a45.127489 45.127489 0 0 1-22.523809-6.150118 55.910164 55.910164 0 0 1-27.076493-47.204152V492.557281h266.292122A37.379938 37.379938 0 0 1 791.518178 511.087506a44.248901 44.248901 0 0 1 4.872172 29.712259 119.16852 119.16852 0 0 1-17.891253 42.252109v0.718845L577.062765 869.791142a45.686591 45.686591 0 0 1-26.677136 16.693178 39.935831 39.935831 0 0 1-8.706011 0.878588z m-17.651637-362.856963v309.502693a23.162782 23.162782 0 0 0 3.114995 11.182032 22.204322 22.204322 0 0 0 7.987166 7.987167 11.980749 11.980749 0 0 0 8.785883 2.236406 13.658054 13.658054 0 0 0 7.987166-5.111786l199.679156-284.343119A89.935492 89.935492 0 0 0 765.16053 535.927593a12.300236 12.300236 0 0 0-0.878589-8.466396c-1.038332-1.757177-1.996792-2.87538-5.910503-2.87538z" p-id="4230"></path><path d="M543.916025 853.177837a17.012664 17.012664 0 0 1-17.012664-7.987167 23.162782 23.162782 0 0 1-3.114995-11.182032V524.505945h243.12934l-1.43769 9.185242a84.823706 84.823706 0 0 1-13.338567 31.948665l-202.314921 287.537985h-3.993583z m-3.274738-15.974333h0.638973L738.802881 556.694225a93.130358 93.130358 0 0 0 7.987166-15.974332H540.002313v293.52836a6.549476 6.549476 0 0 0 0.878589 2.715636z" fill="#FFFFFF" p-id="4231"></path><path d="M499.667124 759.568248V525.624149H189.924817c-14.297028 0-29.872002 15.974332-15.974333 27.87521l284.582734 199.679156c22.284194 13.977541 41.213778 18.610097 41.213777 6.389733z" fill="#18ABFF" p-id="4232"></path><path d="M491.600086 798.785234a50.159404 50.159404 0 0 1-7.987166-0.638973 118.849034 118.849034 0 0 1-42.331982-17.891252h-0.638973L154.142312 578.658933A45.686591 45.686591 0 0 1 137.449134 551.901926a44.248901 44.248901 0 0 1 5.351402-31.309692 56.788752 56.788752 0 0 1 47.124281-26.996622h341.690972V759.568248a37.45981 37.45981 0 0 1-18.610098 33.466227 41.852751 41.852751 0 0 1-21.405605 5.750759z m-33.14674-45.367104a89.695877 89.695877 0 0 0 29.552515 13.178824 13.178824 13.178824 0 0 0 8.546268-0.878588c1.757177-1.038332 2.87538-1.996792 2.87538-5.910503V525.624149H189.924817a24.919959 24.919959 0 0 0-19.488686 11.022289 12.220364 12.220364 0 0 0-1.91692 8.945626 13.817798 13.817798 0 0 0 5.111787 7.987167z" p-id="4233"></path><path d="M499.667124 768.354131l-9.185241-1.43769a86.50101 86.50101 0 0 1-31.948665-13.338568L170.436131 551.023337l0.399358-4.552684c1.277947-15.335359 10.702803-20.846504 19.089328-20.846504h309.742307zM187.608538 543.914759l279.550819 196.644033a93.130358 93.130358 0 0 0 15.974333 7.987167V541.598481H189.924817c-0.399358 0-1.517562 0-2.316279 2.316278z" fill="#FFFFFF" p-id="4234"></path></svg>